<?xml version="1.0" encoding="utf-8"?>
<!-- Generator: Adobe Illustrator 24.0.0, SVG Export Plug-In . SVG Version: 6.00 Build 0)  -->
<svg version="1.1" id="Warstwa_1" xmlns="http://www.w3.org/2000/svg" xmlns:xlink="http://www.w3.org/1999/xlink" x="0px" y="0px"
	 viewBox="0 0 280 62" style="enable-background:new 0 0 280 62;" xml:space="preserve">
<style type="text/css">
	.st0{fill:#62645F;}
	.st1{fill:url(#SVGID_1_);}
</style>
<g>
	<g>
		<g>
			<path class="st0" d="M100.6,12.6h15.3c1.5,0,2.7,1.2,2.7,2.7v0.1c0,1.5-1.2,2.7-2.7,2.7h-10.7c-0.3,0-0.6,0.3-0.6,0.6V26
				c0,0.3,0.3,0.6,0.6,0.6h7.4c1.5,0,2.7,1.2,2.7,2.7v0c0,1.5-1.2,2.7-2.7,2.7h-7.4c-0.3,0-0.6,0.3-0.6,0.6v10.9
				c0,1.5-1.2,2.7-2.7,2.7h-1.4c-1.5,0-2.7-1.2-2.7-2.7V15.3C97.9,13.8,99.1,12.6,100.6,12.6z"/>
			<path class="st0" d="M134.7,15.3v24.7c0,0.4,0.3,0.7,0.7,0.7h7.6c1.5,0,2.7,1.2,2.7,2.7v0c0,1.5-1.2,2.7-2.7,2.7h-12.4
				c-1.5,0-2.7-1.2-2.7-2.7V15.3c0-1.5,1.2-2.7,2.7-2.7h1.4C133.5,12.6,134.7,13.8,134.7,15.3z"/>
			<path class="st0" d="M170.2,46.3c-9.4,0-17.1-7.1-17.1-17.1c0-10,7.7-17.1,17.1-17.1c9.5,0,17.1,7.1,17.1,17.1
				C187.3,39.2,179.7,46.3,170.2,46.3z M170.2,40.3c6,0,10.2-4.3,10.2-11.1s-4.2-11-10.2-11c-6.1,0-10.2,4.3-10.2,11
				S164.2,40.3,170.2,40.3z"/>
			<path class="st0" d="M197.9,12.6h19.2c1.5,0,2.7,1.2,2.7,2.7v0.1c0,1.5-1.2,2.7-2.7,2.7h-5.8c-0.3,0-0.5,0.2-0.5,0.5v24.8
				c0,1.5-1.2,2.7-2.7,2.7h-1.4c-1.5,0-2.7-1.2-2.7-2.7V18.5c0-0.3-0.2-0.5-0.5-0.5h-5.8c-1.5,0-2.7-1.2-2.7-2.7v-0.1
				C195.3,13.8,196.5,12.6,197.9,12.6z"/>
			<path class="st0" d="M232,12.6h1.4c1.5,0,2.7,1.2,2.7,2.7v28.1c0,1.5-1.2,2.7-2.7,2.7H232c-1.5,0-2.7-1.2-2.7-2.7V15.3
				C229.4,13.8,230.6,12.6,232,12.6z"/>
			<path class="st0" d="M273.5,43.8l3.2,3.7c1.5,1.7,0.3,4.4-2,4.4h-1.2c-0.8,0-1.5-0.3-2-1l-4-4.8c-0.2-0.2-0.4-0.3-0.7-0.2
				c-1.2,0.3-2.6,0.4-3.9,0.4c-9.4,0-17.1-7.1-17.1-17.1c0-10,7.7-17.1,17.1-17.1c9.5,0,17.1,7.1,17.1,17.1c0,5.8-2.5,10.6-6.5,13.6
				C273.2,43.1,273.2,43.5,273.5,43.8z M262.9,40.3c6,0,10.2-4.3,10.2-11.1s-4.2-11-10.2-11c-6.1,0-10.2,4.3-10.2,11
				S256.9,40.3,262.9,40.3z"/>
		</g>
	</g>
	<linearGradient id="SVGID_1_" gradientUnits="userSpaceOnUse" x1="10.6837" y1="66.1889" x2="51.3163" y2="-4.1889">
		<stop  offset="0" style="stop-color:#99CCA0"/>
		<stop  offset="1" style="stop-color:#289AAA"/>
	</linearGradient>
	<path class="st1" d="M57.3,0H4.7C2.1,0,0,2.1,0,4.7v52.6C0,59.9,2.1,62,4.7,62h52.6c2.6,0,4.7-2.1,4.7-4.7V4.7
		C62,2.1,59.9,0,57.3,0z M35.3,36.1c-0.8,0.6-1.8,0.9-3.1,0.9c0,0,0,0,0,0L25.9,37l0.1,8.3c0,1.3-0.4,2.4-1.2,3.2
		c-0.8,0.8-1.8,1.2-3.1,1.2c0,0,0,0,0,0c-1.3,0-2.4-0.4-3.2-1.2l0,0c-0.8-0.8-1.2-1.9-1.2-3.2l-0.1-20.1c0-3.1,1-5.6,2.9-7.5
		c1.9-1.8,4.5-2.7,7.8-2.7c0,0,0,0,0.1,0l11.4,0c1.3,0,2.4,0.3,3.1,0.9c0.8,0.7,1.2,1.6,1.2,2.9c0,1.1-0.4,2-1.3,2.7
		c-0.8,0.6-1.8,0.9-3.1,0.9c0,0,0,0,0,0l-10.9,0c0,0,0,0,0,0c-0.8,0-1.4,0.2-1.9,0.7c-0.5,0.5-0.7,1.2-0.7,2.2l0,4.2l6.3,0.1
		c1.3,0,2.4,0.3,3.1,0.9c0.8,0.7,1.2,1.6,1.2,2.9C36.6,34.5,36.1,35.5,35.3,36.1z M42.9,37.1c-2,0-3.5-1.6-3.5-3.5
		c0-2,1.6-3.5,3.5-3.5c2,0,3.5,1.6,3.5,3.5C46.4,35.5,44.8,37.1,42.9,37.1z M50.1,22.8c-2,0-3.7-1.7-3.7-3.7s1.7-3.7,3.7-3.7
		c2,0,3.7,1.7,3.7,3.7S52.1,22.8,50.1,22.8z"/>
</g>
</svg>
